<svg width="20" height="18" viewBox="0 0 20 18" xmlns="http://www.w3.org/2000/svg" xmlns:xlink="http://www.w3.org/1999/xlink" xmlns:figma="http://www.figma.com/figma/ns"><title>Vector</title><desc>Created using Figma</desc><use xlink:href="#a" transform="translate(1 1)" style="mix-blend-mode:normal" figma:type="vector"/><defs><path id="a" d="M15.938 9.04v-1c-.552 0-1 .448-1 1h1zM10.982 16h-1c0 .552.448 1 1 1v-1zm0-5.966h1c0-.552-.447-1-1-1v1zm-3.964 0v-1c-.553 0-1 .448-1 1h1zm0 5.966v1c.552 0 1-.448 1-1h-1zM2.062 9.04h1c0-.552-.448-1-1-1v1zM.345 8.296l-.708-.705-.012.012.72.694zM8.298.31l.71.706.01-.012L8.3.31zM9 0l.04-1h-.08L9 0zm.702.31l-.722.692.013.014.71-.706zm7.952 7.985l.72-.694-.012-.01-.708.705zm-.06-.255H15.94v2h1.657v-2zm-2.656 1v5.966h2V9.04h-2zm0 5.966c0 .02 0 .037-.003.052l-.005.03c-.002.007-.002.007 0 .002s.008-.016.018-.03c.01-.013.024-.027.04-.04.016-.012.03-.02.04-.025.01-.004.01-.003 0 0-.013 0-.04.005-.08.005v2c.654 0 1.22-.242 1.588-.723.332-.434.402-.93.402-1.27h-2zm.01-.006H10.98v2h3.965v-2zm-2.966 1v-5.966h-2V16h2zm-1-6.966H7.018v2h3.964v-2zm-4.964 1V16h2v-5.966h-2zm1 4.966H3.053v2h3.965v-2zm-3.965 0c-.042 0-.068-.004-.08-.006-.012-.002-.01-.003 0 0l.04.026c.015.013.03.027.04.04.01.014.015.025.017.03.003.005.002.005 0 0 0-.007-.003-.017-.005-.032s-.003-.033-.003-.052h-2c0 .34.07.837.402 1.27.368.482.934.724 1.59.724v-2zm.01.006V9.04h-2v5.966h2zm-1-6.966H.404v2h1.657v-2zm-1.658 0c-.095 0 .013-.02.175.072.1.056.225.158.316.324.09.167.11.332.102.453-.012.2-.097.3-.067.256.028-.043.055-.074.135-.156l-1.44-1.388c-.123.13-.264.297-.357.433-.09.134-.244.394-.266.728-.028.455.2.868.594 1.09.293.166.607.187.81.187v-2zm.65.962l7.952-7.986L7.59-.394-.363 7.59l1.417 1.412zm7.964-7.998C9.022 1 9.028 1 9.04.998l-.08-2c-.487.02-.993.213-1.382.617l1.44 1.387zM8.96 1c.013 0 .02.002.02.003 0 0 0-.002 0 0l1.444-1.384c-.39-.41-.9-.6-1.385-.62l-.08 2zm.033.016L16.945 9l1.417-1.41L10.41-.395l-1.417 1.41zm7.94 7.973c.08.082.11.113.136.156.03.045-.055-.055-.068-.256-.008-.122.01-.286.102-.453.09-.166.216-.268.316-.324.162-.092.27-.073.175-.073v2c.202 0 .516-.02.81-.186.393-.223.622-.637.592-1.092-.02-.334-.176-.594-.266-.728-.092-.136-.233-.304-.356-.433l-1.44 1.39z"/></defs></svg>