<svg version="1.1" xmlns="http://www.w3.org/2000/svg" xmlns:xlink="http://www.w3.org/1999/xlink" width="32" height="32" viewBox="0 0 32 32">
<path d="M0 16c0-8.836 7.164-16 16-16s16 7.164 16 16-7.164 16-16 16-16-7.164-16-16zM16 2.909c-7.229 0-13.091 5.862-13.091 13.091s5.862 13.091 13.091 13.091 13.091-5.862 13.091-13.091-5.862-13.091-13.091-13.091z"></path>
<path d="M8.116 16.625c0-4.335 3.447-7.898 7.767-7.898s7.772 3.564 7.772 7.898c0 1.937-0.688 3.715-1.833 5.091 2.479 1.213 4.359 3.264 4.359 5.92 0 0.803-0.652 1.455-1.455 1.455s-1.455-0.652-1.455-1.455c0-1.459-1.517-3.238-4.625-3.981-0.582-0.138-1.018-0.617-1.103-1.207-0.087-0.589 0.196-1.171 0.713-1.469 1.479-0.851 2.487-2.476 2.487-4.353 0-2.783-2.202-4.989-4.858-4.989-2.659 0-4.861 2.207-4.861 4.989 0 1.9 1.033 3.542 2.538 4.384 0.521 0.291 0.81 0.868 0.733 1.459-0.080 0.591-0.509 1.076-1.087 1.222-3.024 0.768-4.483 2.511-4.483 3.946 0 0.803-0.652 1.455-1.455 1.455s-1.455-0.652-1.455-1.455c0-2.599 1.804-4.62 4.196-5.839-1.185-1.388-1.9-3.2-1.9-5.172z"></path>
</svg>
