<?xml version="1.0" encoding="UTF-8" standalone="no"?>
<svg
   xmlns:dc="http://purl.org/dc/elements/1.1/"
   xmlns:cc="http://creativecommons.org/ns#"
   xmlns:rdf="http://www.w3.org/1999/02/22-rdf-syntax-ns#"
   xmlns:svg="http://www.w3.org/2000/svg"
   xmlns="http://www.w3.org/2000/svg"
   id="svg2"
   style="fill-rule:evenodd;clip-rule:evenodd;stroke-linejoin:round;stroke-miterlimit:1.41421;"
   xml:space="preserve"
   version="1.1"
   viewBox="0 0 170 48"
   height="61px"
   width="215px"><metadata
     id="metadata28"><rdf:RDF><cc:Work
         rdf:about=""><dc:format>image/svg+xml</dc:format><dc:type
           rdf:resource="http://purl.org/dc/dcmitype/StillImage" /><dc:title></dc:title></cc:Work></rdf:RDF></metadata><defs
     id="defs26" /><g
     style="fill:#666666;fill-opacity:1">
     <path
       id="path5"
       style="fill-rule:nonzero;fill:#666666;fill-opacity:1"
       d="M1.094,22.385c0,-0.347 0.298,-0.669 0.67,-0.669l0.124,0c0.272,0 0.495,0.148 0.669,0.372l6.967,10.24l6.968,-10.24c0.148,-0.224 0.371,-0.372 0.669,-0.372l0.124,0c0.347,0 0.669,0.297 0.669,0.669l0,16.712c0,0.347 -0.297,0.669 -0.669,0.669c-0.347,0 -0.669,-0.297 -0.669,-0.669l0,-14.951l-6.546,9.545c-0.149,0.224 -0.323,0.323 -0.571,0.323c-0.223,0 -0.396,-0.099 -0.57,-0.323l-6.546,-9.545l0,14.975c0,0.348 -0.272,0.645 -0.644,0.645c-0.347,0 -0.645,-0.273 -0.645,-0.645l0,-16.736l0,0Z" /><path
       id="path7"
       style="fill-rule:nonzero;fill:#666666;fill-opacity:1"
       d="M21.401,43.386c-0.198,-0.074 -0.347,-0.248 -0.347,-0.545c0,-0.323 0.248,-0.595 0.595,-0.595c0.124,0 0.248,0.049 0.397,0.099c0.396,0.149 0.867,0.248 1.661,0.248c1.438,0 2.306,-0.942 3.124,-2.876l0.074,-0.174l-5.802,-12.001c-0.049,-0.124 -0.099,-0.248 -0.099,-0.372c0,-0.347 0.273,-0.644 0.67,-0.644c0.372,0 0.545,0.223 0.669,0.521l5.207,11.207l4.537,-11.282c0.1,-0.248 0.273,-0.471 0.62,-0.471c0.347,0 0.645,0.273 0.645,0.645c0,0.124 -0.025,0.198 -0.074,0.322l-5.282,12.596c-1.14,2.727 -2.479,3.694 -4.339,3.694c-0.892,0.05 -1.562,-0.099 -2.256,-0.372l0,0Z" /><path
       id="path9"
       style="fill-rule:nonzero;fill:#666666;fill-opacity:1"
       d="M35.807,22.46c0,-0.348 0.297,-0.67 0.669,-0.67l5.256,0c5.604,0 9.497,3.843 9.497,8.877l0,0.049c0,5.033 -3.868,8.926 -9.497,8.926l-5.281,0c-0.347,0 -0.669,-0.297 -0.669,-0.669l0,-16.513l0.025,0ZM41.732,38.427c4.984,0 8.108,-3.397 8.108,-7.661l0,-0.05c0,-4.24 -3.124,-7.711 -8.108,-7.711l-4.611,0l0,15.397l4.611,0l0,0.025Z" /><path
       id="path11"
       style="fill-rule:nonzero;fill:#666666;fill-opacity:1"
       d="M53.163,33.196l0,-0.05c0,-3.645 2.826,-6.819 6.694,-6.819c3.843,0 6.645,3.1 6.645,6.769l0,0.05c0,3.645 -2.826,6.818 -6.694,6.818c-3.843,-0.024 -6.645,-3.124 -6.645,-6.768ZM65.163,33.196l0,-0.05c0,-3.124 -2.355,-5.628 -5.355,-5.628c-3.075,0 -5.306,2.529 -5.306,5.578l0,0.05c0,3.124 2.355,5.628 5.355,5.628c3.1,0 5.306,-2.529 5.306,-5.578Z" /><path
       id="path13"
       style="fill-rule:nonzero;fill:#666666;fill-opacity:1"
       d="M69.23,27.17c0,-0.347 0.248,-0.644 0.62,-0.644c0.347,0 0.644,0.248 0.644,0.644l0,1.786c0.843,-1.339 2.009,-2.629 4.339,-2.629c2.281,0 3.67,1.29 4.389,2.802c0.843,-1.463 2.256,-2.802 4.686,-2.802c3.075,0 5.009,2.158 5.009,5.43l0,7.34c0,0.372 -0.248,0.644 -0.62,0.644c-0.372,0 -0.645,-0.248 -0.645,-0.644l0,-7.191c0,-2.802 -1.463,-4.438 -3.843,-4.438c-2.182,0 -4.116,1.686 -4.116,4.587l0,7.042c0,0.372 -0.248,0.644 -0.62,0.644c-0.347,0 -0.645,-0.248 -0.645,-0.644l0,-7.265c0,-2.703 -1.487,-4.364 -3.793,-4.364c-2.331,0 -4.166,2.033 -4.166,4.661l0,6.968c0,0.372 -0.248,0.644 -0.619,0.644c-0.348,0 -0.645,-0.248 -0.645,-0.644l0,-11.927l0.025,0Z" /><path
       id="path15"
       style="fill-rule:nonzero;fill:#666666;fill-opacity:1"
       d="M92.859,22.187c0,-0.422 0.322,-0.769 0.769,-0.769c0.421,0 0.793,0.322 0.793,0.769l0,0.421c0,0.422 -0.347,0.769 -0.793,0.769c-0.422,0 -0.769,-0.322 -0.769,-0.769l0,-0.421l0,0ZM93.032,27.17c0,-0.347 0.248,-0.644 0.62,-0.644c0.347,0 0.645,0.248 0.645,0.644l0,11.927c0,0.372 -0.248,0.644 -0.62,0.644c-0.347,0 -0.645,-0.248 -0.645,-0.644l0,-11.927Z" /><path
       id="path17"
       style="fill-rule:nonzero;fill:#666666;fill-opacity:1"
       d="M98.81,27.17c0,-0.347 0.248,-0.644 0.62,-0.644c0.347,0 0.644,0.248 0.644,0.644l0,1.885c0.868,-1.537 2.331,-2.728 4.686,-2.728c3.298,0 5.207,2.232 5.207,5.356l0,7.414c0,0.372 -0.248,0.644 -0.62,0.644c-0.347,0 -0.644,-0.248 -0.644,-0.644l0,-7.191c0,-2.678 -1.513,-4.438 -4.141,-4.438c-2.554,0 -4.513,1.934 -4.513,4.637l0,6.992c0,0.372 -0.248,0.644 -0.619,0.644c-0.348,0 -0.645,-0.248 -0.645,-0.644l0,-11.927l0.025,0Z" /><path
       id="path19"
       style="fill-rule:nonzero;fill:#666666;fill-opacity:1"
       d="M112.645,33.196l0,-0.05c0,-3.645 2.827,-6.819 6.695,-6.819c3.843,0 6.645,3.1 6.645,6.769l0,0.05c0,3.645 -2.827,6.818 -6.695,6.818c-3.818,-0.024 -6.645,-3.124 -6.645,-6.768ZM124.67,33.196l0,-0.05c0,-3.124 -2.355,-5.628 -5.355,-5.628c-3.075,0 -5.306,2.529 -5.306,5.578l0,0.05c0,3.124 2.355,5.628 5.355,5.628c3.075,0 5.306,-2.529 5.306,-5.578Z" /></g><g
     style="fill:#00ccff;fill-opacity:0.94117647"><path
       id="path22"
       style="fill-rule:nonzero;fill:#00ccff;fill-opacity:0.94117647"
       d="M153.631,38.328l-0.472,0l0,-0.149l1.091,0l0,0.149l-0.471,0l0,1.24l-0.148,0l0,-1.24ZM154.597,38.179l0.149,0l0.496,0.769l0.496,-0.769l0.149,0l0,1.389l-0.149,0l0,-1.116l-0.496,0.744l-0.496,-0.744l0,1.116l-0.149,0l0,-1.389ZM159.085,8.525l1.637,0.57l-0.744,1.562l1.562,-0.744l0.57,1.637l0.571,-1.637l1.562,0.744l-0.744,-1.562l1.636,-0.57l-1.636,-0.57l0.744,-1.562l-1.562,0.743l-0.571,-1.636l-0.57,1.636l-1.562,-0.743l0.744,1.562l-1.637,0.57ZM154.226,11.996c2.479,0.868 5.157,1.339 7.934,1.339c2.777,0 5.43,-0.496 7.934,-1.339l-15.868,0ZM147.06,38.179c2.901,-2.851 4.86,-6.521 5.628,-10.562c0.397,-2.058 0.471,-4.141 0.223,-6.174c3.868,-0.57 7.29,-2.951 9.174,-6.397c0.025,-0.05 0.025,-0.099 -0.024,-0.149c-0.05,-0.049 -0.1,-0.049 -0.149,0c-2.43,1.587 -5.232,2.331 -8.108,2.182c-2.132,-0.099 -4.141,-0.694 -5.975,-1.736c-0.05,-0.024 -0.1,-0.024 -0.149,0.025c-0.05,0.05 -0.05,0.099 -0.025,0.149c2.256,3.67 3.223,7.885 2.851,12.174c-0.396,4.438 -2.206,8.505 -5.231,11.753c-0.05,0.049 -0.05,0.124 0,0.173c0.025,0.025 0.049,0.05 0.099,0.05l6.992,0c0.05,0 0.074,-0.025 0.074,-0.074c0,-0.025 -0.024,-0.05 -0.049,-0.075l-5.331,-1.339l0,0ZM135.729,22.633c1.537,-0.074 2.826,1.091 2.926,2.628c0,0 0.421,5.678 -0.496,10.588c-0.422,1.909 -1.314,4.066 -3.174,5.082c-0.05,0.025 -0.074,0.075 -0.074,0.124c0,0.05 0.049,0.1 0.099,0.1c3.273,0 6.298,-1.612 8.132,-4.315c3.075,-4.016 4.687,-8.827 4.687,-13.885c0,-2.206 -0.323,-4.413 -0.943,-6.521c-0.421,-1.338 -0.446,-2.256 -0.446,-2.281c0,-3.322 2.703,-6.025 6.025,-6.025c0.025,0 0.05,-0.025 0.075,-0.025c0.024,-0.024 0.024,-0.049 0.024,-0.074c0,-0.248 -0.099,-0.421 -0.297,-0.57c-0.694,-0.571 -2.455,-0.248 -2.529,-0.248c0,0 -1.042,0.173 -2.133,-0.57c-0.867,-0.596 -1.909,-0.943 -3.049,-0.943c-1.463,0 -2.802,0.595 -3.769,1.538c-1.364,1.289 -2.132,3.297 -2.281,5.926c0,3.421 -3.719,5.479 -4.463,5.851c-2.504,1.314 -4.711,3.422 -6.1,5.951c-0.024,0.049 -0.024,0.124 0.025,0.173c0.05,0.05 0.124,0.05 0.174,0.025c2.33,-1.512 4.909,-2.355 7.587,-2.529l0,0Z" /></g></svg>