<?xml version="1.0" encoding="UTF-8" standalone="no"?>
<!-- Created with Inkscape (http://www.inkscape.org/) -->

<svg
   xmlns:dc="http://purl.org/dc/elements/1.1/"
   xmlns:cc="http://creativecommons.org/ns#"
   xmlns:rdf="http://www.w3.org/1999/02/22-rdf-syntax-ns#"
   xmlns:svg="http://www.w3.org/2000/svg"
   xmlns="http://www.w3.org/2000/svg"
   xmlns:sodipodi="http://sodipodi.sourceforge.net/DTD/sodipodi-0.dtd"
   xmlns:inkscape="http://www.inkscape.org/namespaces/inkscape"
   width="192.36267mm"
   height="52.126446mm"
   viewBox="0 0 681.60001 184.7"
   id="svg2"
   version="1.1"
   inkscape:version="0.91 r13725"
   sodipodi:docname="mydomino_esc_horizontal.svg">
  <defs
     id="defs4" />
  <sodipodi:namedview
     id="base"
     pagecolor="#ffffff"
     bordercolor="#666666"
     borderopacity="1.0"
     inkscape:pageopacity="0.0"
     inkscape:pageshadow="2"
     inkscape:zoom="0.35"
     inkscape:cx="-67.057143"
     inkscape:cy="-336.22143"
     inkscape:document-units="px"
     inkscape:current-layer="layer1"
     showgrid="false"
     fit-margin-top="0"
     fit-margin-left="0"
     fit-margin-right="0"
     fit-margin-bottom="0"
     inkscape:window-width="1920"
     inkscape:window-height="955"
     inkscape:window-x="0"
     inkscape:window-y="1"
     inkscape:window-maximized="1" />
  <metadata
     id="metadata7">
    <rdf:RDF>
      <cc:Work
         rdf:about="">
        <dc:format>image/svg+xml</dc:format>
        <dc:type
           rdf:resource="http://purl.org/dc/dcmitype/StillImage" />
        <dc:title></dc:title>
      </cc:Work>
    </rdf:RDF>
  </metadata>
  <g
     inkscape:label="Layer 1"
     inkscape:groupmode="layer"
     id="layer1"
     transform="translate(-27.771429,-11.440777)">
    <g
       id="layer1-8"
       inkscape:label="Layer 1"
       transform="translate(19.999996,-3.1428572e-6)"
       style="fill:#666666;fill-opacity:1">
      <g
         transform="translate(-66.328567,-175.05922)"
         id="g3540"
         style="fill:#666666;fill-opacity:1">
        <g
           id="g3466"
           style="fill:#666666;fill-opacity:1">
          <g
             id="g3468"
             style="fill:#666666;fill-opacity:1">
            <path
               inkscape:connector-curvature="0"
               d="m 74.1,254.6 c 0,-1.4 1.2,-2.7 2.7,-2.7 l 0.5,0 c 1.1,0 2,0.6 2.7,1.5 l 28.1,41.3 28.1,-41.3 c 0.6,-0.9 1.5,-1.5 2.7,-1.5 l 0.5,0 c 1.4,0 2.7,1.2 2.7,2.7 l 0,67.4 c 0,1.4 -1.2,2.7 -2.7,2.7 -1.4,0 -2.7,-1.2 -2.7,-2.7 l 0,-60.3 -26.4,38.5 c -0.6,0.9 -1.3,1.3 -2.3,1.3 -0.9,0 -1.6,-0.4 -2.3,-1.3 l -26.4,-38.5 0,60.4 c 0,1.4 -1.1,2.6 -2.6,2.6 -1.4,0 -2.6,-1.1 -2.6,-2.6 l 0,-67.5 z"
               id="path3470"
               style="fill:#666666;fill-opacity:1" />
            <path
               inkscape:connector-curvature="0"
               d="m 156,339.3 c -0.8,-0.3 -1.4,-1 -1.4,-2.2 0,-1.3 1,-2.4 2.4,-2.4 0.5,0 1,0.2 1.6,0.4 1.6,0.6 3.5,1 6.7,1 5.8,0 9.3,-3.8 12.6,-11.6 l 0.3,-0.7 -23.4,-48.4 c -0.2,-0.5 -0.4,-1 -0.4,-1.5 0,-1.4 1.1,-2.6 2.7,-2.6 1.5,0 2.2,0.9 2.7,2.1 l 21,45.2 18.3,-45.5 c 0.4,-1 1.1,-1.9 2.5,-1.9 1.4,0 2.6,1.1 2.6,2.6 0,0.5 -0.1,0.8 -0.3,1.3 l -21.3,50.8 c -4.6,11 -10,14.9 -17.5,14.9 -3.6,0.2 -6.3,-0.4 -9.1,-1.5 z"
               id="path3472"
               style="fill:#666666;fill-opacity:1" />
            <path
               inkscape:connector-curvature="0"
               d="m 214.1,254.9 c 0,-1.4 1.2,-2.7 2.7,-2.7 l 21.2,0 c 22.6,0 38.3,15.5 38.3,35.8 l 0,0.2 c 0,20.3 -15.6,36 -38.3,36 l -21.3,0 c -1.4,0 -2.7,-1.2 -2.7,-2.7 l 0,-66.6 z m 23.9,64.4 c 20.1,0 32.7,-13.7 32.7,-30.9 l 0,-0.2 c 0,-17.1 -12.6,-31.1 -32.7,-31.1 l -18.6,0 0,62.1 18.6,0 z"
               id="path3474"
               style="fill:#666666;fill-opacity:1" />
            <path
               inkscape:connector-curvature="0"
               d="m 284.1,298.2 0,-0.2 c 0,-14.7 11.4,-27.5 27,-27.5 15.5,0 26.8,12.5 26.8,27.3 l 0,0.2 c 0,14.7 -11.4,27.5 -27,27.5 -15.5,-0.1 -26.8,-12.6 -26.8,-27.3 z m 48.4,0 0,-0.2 c 0,-12.6 -9.5,-22.7 -21.6,-22.7 -12.4,0 -21.4,10.2 -21.4,22.5 l 0,0.2 c 0,12.6 9.5,22.7 21.6,22.7 12.5,0 21.4,-10.2 21.4,-22.5 z"
               id="path3476"
               style="fill:#666666;fill-opacity:1" />
            <path
               inkscape:connector-curvature="0"
               d="m 348.9,273.9 c 0,-1.4 1,-2.6 2.5,-2.6 1.4,0 2.6,1 2.6,2.6 l 0,7.2 c 3.4,-5.4 8.1,-10.6 17.5,-10.6 9.2,0 14.8,5.2 17.7,11.3 3.4,-5.9 9.1,-11.3 18.9,-11.3 12.4,0 20.2,8.7 20.2,21.9 l 0,29.6 c 0,1.5 -1,2.6 -2.5,2.6 -1.5,0 -2.6,-1 -2.6,-2.6 l 0,-29 c 0,-11.3 -5.9,-17.9 -15.5,-17.9 -8.8,0 -16.6,6.8 -16.6,18.5 l 0,28.4 c 0,1.5 -1,2.6 -2.5,2.6 -1.4,0 -2.6,-1 -2.6,-2.6 l 0,-29.3 c 0,-10.9 -6,-17.6 -15.3,-17.6 -9.4,0 -16.8,8.2 -16.8,18.8 l 0,28.1 c 0,1.5 -1,2.6 -2.5,2.6 -1.4,0 -2.6,-1 -2.6,-2.6 l 0,-48.1 z"
               id="path3478"
               style="fill:#666666;fill-opacity:1" />
            <path
               inkscape:connector-curvature="0"
               d="m 444.2,253.8 c 0,-1.7 1.3,-3.1 3.1,-3.1 1.7,0 3.2,1.3 3.2,3.1 l 0,1.7 c 0,1.7 -1.4,3.1 -3.2,3.1 -1.7,0 -3.1,-1.3 -3.1,-3.1 l 0,-1.7 z m 0.7,20.1 c 0,-1.4 1,-2.6 2.5,-2.6 1.4,0 2.6,1 2.6,2.6 l 0,48.1 c 0,1.5 -1,2.6 -2.5,2.6 -1.4,0 -2.6,-1 -2.6,-2.6 l 0,-48.1 z"
               id="path3480"
               style="fill:#666666;fill-opacity:1" />
            <path
               inkscape:connector-curvature="0"
               d="m 468.2,273.9 c 0,-1.4 1,-2.6 2.5,-2.6 1.4,0 2.6,1 2.6,2.6 l 0,7.6 c 3.5,-6.2 9.4,-11 18.9,-11 13.3,0 21,9 21,21.6 l 0,29.9 c 0,1.5 -1,2.6 -2.5,2.6 -1.4,0 -2.6,-1 -2.6,-2.6 l 0,-29 c 0,-10.8 -6.1,-17.9 -16.7,-17.9 -10.3,0 -18.2,7.8 -18.2,18.7 l 0,28.2 c 0,1.5 -1,2.6 -2.5,2.6 -1.4,0 -2.6,-1 -2.6,-2.6 l 0,-48.1 z"
               id="path3482"
               style="fill:#666666;fill-opacity:1" />
            <path
               inkscape:connector-curvature="0"
               d="m 524,298.2 0,-0.2 c 0,-14.7 11.4,-27.5 27,-27.5 15.5,0 26.8,12.5 26.8,27.3 l 0,0.2 c 0,14.7 -11.4,27.5 -27,27.5 C 535.4,325.4 524,312.9 524,298.2 Z m 48.5,0 0,-0.2 c 0,-12.6 -9.5,-22.7 -21.6,-22.7 -12.4,0 -21.4,10.2 -21.4,22.5 l 0,0.2 c 0,12.6 9.5,22.7 21.6,22.7 12.4,0 21.4,-10.2 21.4,-22.5 z"
               id="path3484"
               style="fill:#666666;fill-opacity:1" />
          </g>
          <g
             id="g3486"
             style="fill:#666666;fill-opacity:1">
            <path
               inkscape:connector-curvature="0"
               d="m 222,366.5 c -4.2,0 -7.7,-3.3 -7.7,-8 l 0,-0.1 c 0,-4.4 3.1,-8 7.4,-8 4.6,0 7.2,3.7 7.2,7.8 0,0.6 -0.5,1.1 -1.1,1.1 l -11.2,0 c 0.3,3.3 2.7,5.2 5.4,5.2 1.9,0 3.3,-0.7 4.4,-1.8 0.2,-0.1 0.4,-0.3 0.7,-0.3 0.6,0 1,0.4 1,1 0,0.3 -0.1,0.5 -0.4,0.7 -1.4,1.5 -3.1,2.4 -5.7,2.4 z m 4.5,-8.9 c -0.2,-2.8 -1.9,-5.3 -4.9,-5.3 -2.7,0 -4.7,2.2 -5,5.3 l 9.9,0 z"
               id="path3488"
               style="fill:#666666;fill-opacity:1" />
            <path
               inkscape:connector-curvature="0"
               d="m 232.7,351.7 c 0,-0.6 0.5,-1.2 1.1,-1.2 0.7,0 1.2,0.5 1.2,1.2 l 0,1.7 c 1,-1.7 2.6,-3 5.3,-3 3.7,0 5.9,2.5 5.9,6.2 l 0,8.6 c 0,0.7 -0.5,1.2 -1.1,1.2 -0.7,0 -1.2,-0.5 -1.2,-1.2 l 0,-8 c 0,-2.9 -1.6,-4.7 -4.3,-4.7 -2.7,0 -4.6,1.9 -4.6,4.8 l 0,7.8 c 0,0.7 -0.5,1.2 -1.1,1.2 -0.6,0 -1.2,-0.5 -1.2,-1.2 l 0,-13.4 z"
               id="path3490"
               style="fill:#666666;fill-opacity:1" />
            <path
               inkscape:connector-curvature="0"
               d="m 257.4,366.5 c -4.2,0 -7.7,-3.3 -7.7,-8 l 0,-0.1 c 0,-4.4 3.1,-8 7.4,-8 4.6,0 7.2,3.7 7.2,7.8 0,0.6 -0.5,1.1 -1.1,1.1 l -11.2,0 c 0.3,3.3 2.7,5.2 5.4,5.2 1.9,0 3.3,-0.7 4.4,-1.8 0.2,-0.1 0.4,-0.3 0.7,-0.3 0.6,0 1,0.4 1,1 0,0.3 -0.1,0.5 -0.4,0.7 -1.3,1.5 -3,2.4 -5.7,2.4 z m 4.6,-8.9 c -0.2,-2.8 -1.9,-5.3 -4.9,-5.3 -2.7,0 -4.7,2.2 -5,5.3 l 9.9,0 z"
               id="path3492"
               style="fill:#666666;fill-opacity:1" />
            <path
               inkscape:connector-curvature="0"
               d="m 268.5,351.7 c 0,-0.6 0.5,-1.2 1.1,-1.2 0.7,0 1.2,0.5 1.2,1.2 l 0,2.9 c 1.1,-2.6 3.4,-4.1 5.3,-4.1 0.7,0 1.1,0.5 1.1,1.2 0,0.6 -0.4,1.1 -1,1.2 -3,0.4 -5.4,2.6 -5.4,7 l 0,5.3 c 0,0.6 -0.5,1.2 -1.1,1.2 -0.7,0 -1.2,-0.5 -1.2,-1.2 l 0,-13.5 z"
               id="path3494"
               style="fill:#666666;fill-opacity:1" />
            <path
               inkscape:connector-curvature="0"
               d="m 279.9,369.2 c -0.4,-0.2 -0.6,-0.5 -0.6,-1 0,-0.5 0.5,-1 1,-1 0.2,0 0.4,0.1 0.5,0.1 1.6,1.1 3.5,1.7 5.5,1.7 3.4,0 5.6,-1.9 5.6,-5.5 l 0,-1.8 c -1.3,1.8 -3.2,3.3 -6.1,3.3 -3.7,0 -7.3,-2.8 -7.3,-7.2 l 0,-0.1 c 0,-4.5 3.6,-7.3 7.3,-7.3 2.9,0 4.8,1.4 6,3.1 l 0,-1.8 c 0,-0.6 0.5,-1.2 1.1,-1.2 0.7,0 1.2,0.5 1.2,1.2 l 0,11.7 c 0,2.4 -0.7,4.2 -2,5.5 -1.4,1.4 -3.4,2.1 -5.9,2.1 -2.2,0 -4.4,-0.7 -6.3,-1.8 z m 12.1,-11.5 0,0 c 0,-3.2 -2.7,-5.3 -5.7,-5.3 -2.9,0 -5.3,2 -5.3,5.2 l 0,0.1 c 0,3.1 2.5,5.3 5.3,5.3 2.9,-0.1 5.7,-2.2 5.7,-5.3 z"
               id="path3496"
               style="fill:#666666;fill-opacity:1" />
            <path
               inkscape:connector-curvature="0"
               d="m 298.4,370.6 c -0.4,-0.2 -0.7,-0.4 -0.7,-1 0,-0.6 0.5,-1 1,-1 0.2,0 0.4,0.1 0.6,0.1 0.4,0.1 0.9,0.3 1.7,0.3 1.4,0 2.3,-0.9 3.1,-2.7 l 0.1,-0.2 -6.4,-13.7 c -0.1,-0.2 -0.1,-0.4 -0.1,-0.6 0,-0.6 0.5,-1.1 1.2,-1.1 0.6,0 1,0.4 1.2,0.9 l 5.4,12.1 4.8,-12.1 c 0.2,-0.5 0.5,-0.9 1.1,-0.9 0.6,0 1.1,0.5 1.1,1.1 0,0.2 -0.1,0.4 -0.1,0.6 l -6,14.4 c -1.3,3.2 -2.8,4.4 -5.2,4.4 -1.2,-0.2 -2,-0.4 -2.8,-0.6 z"
               id="path3498"
               style="fill:#666666;fill-opacity:1" />
            <path
               inkscape:connector-curvature="0"
               d="m 321.8,364.5 c -0.2,-0.1 -0.4,-0.4 -0.4,-0.8 0,-0.5 0.4,-1 1,-1 0.2,0 0.4,0.1 0.6,0.2 1.6,1.1 3.2,1.6 4.9,1.6 1.9,0 3.2,-1 3.2,-2.4 l 0,-0.1 c 0,-1.6 -1.8,-2.1 -3.9,-2.7 -2.4,-0.7 -5.1,-1.5 -5.1,-4.4 l 0,-0.1 c 0,-2.7 2.2,-4.4 5.3,-4.4 1.6,0 3.4,0.5 4.9,1.3 0.3,0.2 0.6,0.5 0.6,1 0,0.5 -0.4,1 -1,1 -0.2,0 -0.4,-0.1 -0.5,-0.1 -1.3,-0.7 -2.7,-1.2 -4,-1.2 -1.8,0 -3,1 -3,2.2 l 0,0.1 c 0,1.5 1.9,2 4,2.7 2.4,0.7 5,1.6 5,4.4 l 0,0.1 c 0,2.9 -2.4,4.6 -5.5,4.6 -2.1,-0.1 -4.4,-0.8 -6.1,-2 z"
               id="path3500"
               style="fill:#666666;fill-opacity:1" />
            <path
               inkscape:connector-curvature="0"
               d="m 335.8,361.7 0,0 c 0,-3.3 2.7,-5 6.6,-5 2,0 3.4,0.3 4.7,0.7 l 0,-0.5 c 0,-2.8 -1.7,-4.2 -4.6,-4.2 -1.6,0 -2.9,0.4 -4,0.9 -0.1,0.1 -0.3,0.1 -0.4,0.1 -0.5,0 -1,-0.4 -1,-1 0,-0.5 0.3,-0.8 0.6,-1 1.5,-0.7 3.1,-1 5,-1 2.2,0 3.9,0.6 5,1.7 1,1 1.6,2.5 1.6,4.5 l 0,8.4 c 0,0.7 -0.5,1.1 -1.1,1.1 -0.7,0 -1.1,-0.5 -1.1,-1.1 l 0,-1.4 c -1.1,1.4 -2.9,2.7 -5.6,2.7 -2.8,-0.1 -5.7,-1.8 -5.7,-4.9 z m 11.4,-1.2 0,-1.5 c -1.1,-0.3 -2.7,-0.7 -4.5,-0.7 -2.9,0 -4.5,1.3 -4.5,3.2 l 0,0.1 c 0,1.9 1.8,3.1 3.9,3.1 2.7,-0.1 5.1,-1.8 5.1,-4.2 z"
               id="path3502"
               style="fill:#666666;fill-opacity:1" />
            <path
               inkscape:connector-curvature="0"
               d="m 359.1,366.4 -0.1,0 c -0.6,0 -1,-0.4 -1.3,-1 l -5.8,-13.1 c -0.1,-0.2 -0.1,-0.4 -0.1,-0.6 0,-0.6 0.5,-1.1 1.2,-1.1 0.7,0 1,0.4 1.2,0.9 l 5,12.1 5.1,-12.1 c 0.1,-0.4 0.5,-0.8 1.1,-0.8 0.6,0 1.1,0.5 1.1,1.1 0,0.2 -0.1,0.4 -0.1,0.6 l -5.8,13.1 c -0.5,0.5 -0.9,0.9 -1.5,0.9 z"
               id="path3504"
               style="fill:#666666;fill-opacity:1" />
            <path
               inkscape:connector-curvature="0"
               d="m 369.6,345.9 c 0,-0.7 0.6,-1.2 1.3,-1.2 0.8,0 1.4,0.5 1.4,1.2 l 0,0.4 c 0,0.7 -0.6,1.2 -1.4,1.2 -0.7,0 -1.3,-0.5 -1.3,-1.2 l 0,-0.4 z m 0.2,5.8 c 0,-0.6 0.5,-1.2 1.1,-1.2 0.7,0 1.2,0.5 1.2,1.2 l 0,13.4 c 0,0.7 -0.5,1.2 -1.1,1.2 -0.7,0 -1.2,-0.5 -1.2,-1.2 l 0,-13.4 z"
               id="path3506"
               style="fill:#666666;fill-opacity:1" />
            <path
               inkscape:connector-curvature="0"
               d="m 377,351.7 c 0,-0.6 0.5,-1.2 1.1,-1.2 0.7,0 1.2,0.5 1.2,1.2 l 0,1.7 c 1,-1.7 2.6,-3 5.3,-3 3.7,0 5.9,2.5 5.9,6.2 l 0,8.6 c 0,0.7 -0.5,1.2 -1.1,1.2 -0.7,0 -1.2,-0.5 -1.2,-1.2 l 0,-8 c 0,-2.9 -1.6,-4.7 -4.3,-4.7 -2.7,0 -4.6,1.9 -4.6,4.8 l 0,7.8 c 0,0.7 -0.5,1.2 -1.1,1.2 -0.7,0 -1.2,-0.5 -1.2,-1.2 l 0,-13.4 z"
               id="path3508"
               style="fill:#666666;fill-opacity:1" />
            <path
               inkscape:connector-curvature="0"
               d="m 395.2,369.2 c -0.4,-0.2 -0.6,-0.5 -0.6,-1 0,-0.5 0.5,-1 1,-1 0.2,0 0.4,0.1 0.5,0.1 1.6,1.1 3.5,1.7 5.5,1.7 3.4,0 5.6,-1.9 5.6,-5.5 l 0,-1.8 c -1.3,1.8 -3.2,3.3 -6.1,3.3 -3.7,0 -7.3,-2.8 -7.3,-7.2 l 0,-0.1 c 0,-4.5 3.6,-7.3 7.3,-7.3 2.9,0 4.8,1.4 6,3.1 l 0,-1.8 c 0,-0.6 0.5,-1.2 1.1,-1.2 0.7,0 1.2,0.5 1.2,1.2 l 0,11.7 c 0,2.4 -0.7,4.2 -2,5.5 -1.4,1.4 -3.4,2.1 -5.9,2.1 -2.2,0 -4.4,-0.7 -6.3,-1.8 z m 12.1,-11.5 0,0 c 0,-3.2 -2.7,-5.3 -5.7,-5.3 -2.9,0 -5.3,2 -5.3,5.2 l 0,0.1 c 0,3.1 2.5,5.3 5.3,5.3 2.9,-0.1 5.7,-2.2 5.7,-5.3 z"
               id="path3510"
               style="fill:#666666;fill-opacity:1" />
            <path
               inkscape:connector-curvature="0"
               d="m 413.6,364.5 c -0.2,-0.1 -0.4,-0.4 -0.4,-0.8 0,-0.5 0.4,-1 1,-1 0.2,0 0.4,0.1 0.6,0.2 1.6,1.1 3.2,1.6 4.9,1.6 1.9,0 3.2,-1 3.2,-2.4 l 0,-0.1 c 0,-1.6 -1.8,-2.1 -3.9,-2.7 -2.4,-0.7 -5.1,-1.5 -5.1,-4.4 l 0,-0.1 c 0,-2.7 2.2,-4.4 5.3,-4.4 1.6,0 3.4,0.5 4.9,1.3 0.3,0.2 0.6,0.5 0.6,1 0,0.5 -0.4,1 -1,1 -0.2,0 -0.4,-0.1 -0.5,-0.1 -1.3,-0.7 -2.7,-1.2 -4,-1.2 -1.8,0 -3,1 -3,2.2 l 0,0.1 c 0,1.5 1.9,2 4,2.7 2.4,0.7 5,1.6 5,4.4 l 0,0.1 c 0,2.9 -2.4,4.6 -5.5,4.6 -2.2,-0.1 -4.4,-0.8 -6.1,-2 z"
               id="path3512"
               style="fill:#666666;fill-opacity:1" />
            <path
               inkscape:connector-curvature="0"
               d="m 434.3,358.5 0,0 c 0,-4.4 3.4,-8.1 7.9,-8.1 2.6,0 4.3,1 5.7,2.2 0.2,0.1 0.4,0.4 0.4,0.8 0,0.6 -0.5,1.1 -1.1,1.1 -0.3,0 -0.6,-0.1 -0.7,-0.3 -1.1,-1 -2.4,-1.9 -4.2,-1.9 -3.1,0 -5.5,2.7 -5.5,6 l 0,0.1 c 0,3.3 2.4,6 5.7,6 1.8,0 3.2,-0.8 4.3,-1.9 0.1,-0.2 0.4,-0.3 0.7,-0.3 0.6,0 1,0.5 1,1 0,0.3 -0.1,0.5 -0.3,0.7 -1.5,1.5 -3.2,2.5 -5.8,2.5 -4.7,0.1 -8.1,-3.6 -8.1,-7.9 z"
               id="path3514"
               style="fill:#666666;fill-opacity:1" />
            <path
               inkscape:connector-curvature="0"
               d="m 451.1,358.5 0,0 c 0,-4.4 3.4,-8.1 8.1,-8.1 4.6,0 8,3.6 8,8 l 0,0.1 c 0,4.4 -3.4,8.1 -8.1,8.1 -4.6,-0.1 -8,-3.7 -8,-8.1 z m 13.7,0 0,0 c 0,-3.4 -2.5,-6.1 -5.7,-6.1 -3.3,0 -5.6,2.7 -5.6,6 l 0,0.1 c 0,3.3 2.4,6 5.7,6 3.3,-0.1 5.6,-2.8 5.6,-6 z"
               id="path3516"
               style="fill:#666666;fill-opacity:1" />
            <path
               inkscape:connector-curvature="0"
               d="m 470.3,351.7 c 0,-0.6 0.5,-1.2 1.1,-1.2 0.7,0 1.2,0.5 1.2,1.2 l 0,1.7 c 1,-1.7 2.6,-3 5.3,-3 3.7,0 5.9,2.5 5.9,6.2 l 0,8.6 c 0,0.7 -0.5,1.2 -1.1,1.2 -0.7,0 -1.2,-0.5 -1.2,-1.2 l 0,-8 c 0,-2.9 -1.6,-4.7 -4.3,-4.7 -2.7,0 -4.6,1.9 -4.6,4.8 l 0,7.8 c 0,0.7 -0.5,1.2 -1.1,1.2 -0.7,0 -1.2,-0.5 -1.2,-1.2 l 0,-13.4 z"
               id="path3518"
               style="fill:#666666;fill-opacity:1" />
            <path
               inkscape:connector-curvature="0"
               d="m 487.3,358.5 0,0 c 0,-4.4 3.4,-8.1 7.9,-8.1 2.6,0 4.3,1 5.7,2.2 0.2,0.1 0.4,0.4 0.4,0.8 0,0.6 -0.5,1.1 -1.1,1.1 -0.3,0 -0.6,-0.1 -0.7,-0.3 -1.1,-1 -2.4,-1.9 -4.2,-1.9 -3.1,0 -5.5,2.7 -5.5,6 l 0,0.1 c 0,3.3 2.4,6 5.7,6 1.8,0 3.2,-0.8 4.3,-1.9 0.1,-0.2 0.4,-0.3 0.7,-0.3 0.6,0 1,0.5 1,1 0,0.3 -0.1,0.5 -0.3,0.7 -1.5,1.5 -3.2,2.5 -5.8,2.5 -4.7,0.1 -8.1,-3.6 -8.1,-7.9 z"
               id="path3520"
               style="fill:#666666;fill-opacity:1" />
            <path
               inkscape:connector-curvature="0"
               d="m 505.1,345.9 c 0,-0.7 0.6,-1.2 1.3,-1.2 0.8,0 1.4,0.5 1.4,1.2 l 0,0.4 c 0,0.7 -0.6,1.2 -1.4,1.2 -0.7,0 -1.3,-0.5 -1.3,-1.2 l 0,-0.4 z m 0.2,5.8 c 0,-0.6 0.5,-1.2 1.1,-1.2 0.7,0 1.2,0.5 1.2,1.2 l 0,13.4 c 0,0.7 -0.5,1.2 -1.1,1.2 -0.7,0 -1.2,-0.5 -1.2,-1.2 l 0,-13.4 z"
               id="path3522"
               style="fill:#666666;fill-opacity:1" />
            <path
               inkscape:connector-curvature="0"
               d="m 519.4,366.5 c -4.2,0 -7.7,-3.3 -7.7,-8 l 0,-0.1 c 0,-4.4 3.1,-8 7.4,-8 4.6,0 7.2,3.7 7.2,7.8 0,0.6 -0.5,1.1 -1.1,1.1 l -11.2,0 c 0.3,3.3 2.7,5.2 5.4,5.2 1.9,0 3.3,-0.7 4.4,-1.8 0.2,-0.1 0.4,-0.3 0.7,-0.3 0.6,0 1,0.4 1,1 0,0.3 -0.1,0.5 -0.4,0.7 -1.3,1.5 -3.1,2.4 -5.7,2.4 z m 4.6,-8.9 c -0.2,-2.8 -1.9,-5.3 -4.9,-5.3 -2.7,0 -4.7,2.2 -5,5.3 l 9.9,0 z"
               id="path3524"
               style="fill:#666666;fill-opacity:1" />
            <path
               inkscape:connector-curvature="0"
               d="m 530.2,351.7 c 0,-0.6 0.5,-1.2 1.1,-1.2 0.7,0 1.2,0.5 1.2,1.2 l 0,2.9 c 1.1,-2.6 3.4,-4.1 5.3,-4.1 0.7,0 1.1,0.5 1.1,1.2 0,0.6 -0.4,1.1 -1,1.2 -3,0.4 -5.4,2.6 -5.4,7 l 0,5.3 c 0,0.6 -0.5,1.2 -1.1,1.2 -0.7,0 -1.2,-0.5 -1.2,-1.2 l 0,-13.5 z"
               id="path3526"
               style="fill:#666666;fill-opacity:1" />
            <path
               inkscape:connector-curvature="0"
               d="m 541.9,369.2 c -0.4,-0.2 -0.6,-0.5 -0.6,-1 0,-0.5 0.5,-1 1,-1 0.2,0 0.4,0.1 0.5,0.1 1.6,1.1 3.5,1.7 5.5,1.7 3.4,0 5.6,-1.9 5.6,-5.5 l 0,-1.8 c -1.3,1.8 -3.2,3.3 -6.1,3.3 -3.7,0 -7.3,-2.8 -7.3,-7.2 l 0,-0.1 c 0,-4.5 3.6,-7.3 7.3,-7.3 2.9,0 4.8,1.4 6,3.1 l 0,-1.8 c 0,-0.6 0.5,-1.2 1.1,-1.2 0.7,0 1.2,0.5 1.2,1.2 l 0,11.7 c 0,2.4 -0.7,4.2 -2,5.5 -1.4,1.4 -3.4,2.1 -5.9,2.1 -2.2,0 -4.3,-0.7 -6.3,-1.8 z m 12.1,-11.5 0,0 c 0,-3.2 -2.7,-5.3 -5.7,-5.3 -2.9,0 -5.3,2 -5.3,5.2 l 0,0.1 c 0,3.1 2.5,5.3 5.3,5.3 3,-0.1 5.7,-2.2 5.7,-5.3 z"
               id="path3528"
               style="fill:#666666;fill-opacity:1" />
            <path
               inkscape:connector-curvature="0"
               d="m 567.8,366.5 c -4.2,0 -7.7,-3.3 -7.7,-8 l 0,-0.1 c 0,-4.4 3.1,-8 7.4,-8 4.6,0 7.2,3.7 7.2,7.8 0,0.6 -0.5,1.1 -1.1,1.1 l -11.2,0 c 0.3,3.3 2.7,5.2 5.4,5.2 1.9,0 3.3,-0.7 4.4,-1.8 0.2,-0.1 0.4,-0.3 0.7,-0.3 0.6,0 1,0.4 1,1 0,0.3 -0.1,0.5 -0.4,0.7 -1.3,1.5 -3.1,2.4 -5.7,2.4 z m 4.6,-8.9 c -0.2,-2.8 -1.9,-5.3 -4.9,-5.3 -2.7,0 -4.7,2.2 -5,5.3 l 9.9,0 z"
               id="path3530"
               style="fill:#666666;fill-opacity:1" />
          </g>
        </g>
        <path
           inkscape:connector-curvature="0"
           d="m 689.3,318.9 -1.9,0 0,-0.6 4.4,0 0,0.6 -1.9,0 0,5 -0.6,0 0,-5 z m 3.9,-0.6 0.6,0 2,3.1 2,-3.1 0.6,0 0,5.6 -0.6,0 0,-4.5 -2,3 0,0 -2,-3 0,4.5 -0.6,0 0,-5.6 z m 18.1,-119.6 6.6,2.3 -3,6.3 6.3,-3 2.3,6.6 2.3,-6.6 6.3,3 -3,-6.3 6.6,-2.3 -6.6,-2.3 3,-6.3 -6.3,3 -2.3,-6.6 -2.3,6.6 -6.3,-3 3,6.3 -6.6,2.3 z M 665,191 c 0,0 0,0 0,0 m 26.7,21.7 c 10,3.5 20.8,5.4 32,5.4 11.2,0 21.9,-2 32,-5.4 l -64,0 z m -28.9,105.6 c 11.7,-11.5 19.6,-26.3 22.7,-42.6 1.6,-8.3 1.9,-16.7 0.9,-24.9 15.6,-2.3 29.4,-11.9 37,-25.8 0.1,-0.2 0.1,-0.4 -0.1,-0.6 -0.2,-0.2 -0.4,-0.2 -0.6,0 -9.8,6.4 -21.1,9.4 -32.7,8.8 -8.6,-0.4 -16.7,-2.8 -24.1,-7 -0.2,-0.1 -0.4,-0.1 -0.6,0.1 -0.2,0.2 -0.2,0.4 -0.1,0.6 9.1,14.8 13,31.8 11.5,49.1 -1.6,17.9 -8.9,34.3 -21.1,47.4 -0.2,0.2 -0.2,0.5 0,0.7 0.1,0.1 0.2,0.2 0.4,0.2 l 28.2,0 c 0.2,0 0.3,-0.1 0.3,-0.3 0,-0.1 -0.1,-0.2 -0.2,-0.3 l -21.5,-5.4 z m -45.7,-62.7 c 6.2,-0.3 11.4,4.4 11.8,10.6 0,0 1.7,22.9 -2,42.7 -1.7,7.7 -5.3,16.4 -12.8,20.5 -0.2,0.1 -0.3,0.3 -0.3,0.5 0,0.2 0.2,0.4 0.4,0.4 13.2,0 25.4,-6.5 32.8,-17.4 12.4,-16.2 18.9,-35.6 18.9,-56 0,-8.9 -1.3,-17.8 -3.8,-26.3 -1.7,-5.4 -1.8,-9.1 -1.8,-9.2 0,-13.4 10.9,-24.3 24.3,-24.3 0.1,0 0.2,-0.1 0.3,-0.1 0.1,-0.1 0.1,-0.2 0.1,-0.3 0,-1 -0.4,-1.7 -1.2,-2.3 -2.8,-2.3 -9.9,-1 -10.2,-1 0,0 -4.2,0.7 -8.6,-2.3 -3.5,-2.4 -7.7,-3.8 -12.3,-3.8 -5.9,0 -11.3,2.4 -15.2,6.2 -5.5,5.2 -8.6,13.3 -9.2,23.9 0,13.8 -15,22.1 -18,23.6 -10.1,5.3 -19,13.8 -24.6,24 -0.1,0.2 -0.1,0.5 0.1,0.7 0.2,0.2 0.5,0.2 0.7,0.1 9.4,-6.1 19.8,-9.5 30.6,-10.2 z"
           id="path3532"
           style="fill:#666666;fill-opacity:1" />
      </g>
    </g>
  </g>
</svg>
